<!DOCTYPE svg PUBLIC "-//W3C//DTD SVG 1.1//EN" "http://www.w3.org/Graphics/SVG/1.1/DTD/svg11.dtd">

<!-- Uploaded to: SVG Repo, www.svgrepo.com, Transformed by: SVG Repo Mixer Tools -->
<svg fill="#000000" version="1.1" id="Layer_1" xmlns="http://www.w3.org/2000/svg" xmlns:xlink="http://www.w3.org/1999/xlink" viewBox="0 0 512 512" xml:space="preserve">

<g id="SVGRepo_bgCarrier" stroke-width="0"/>

<g id="SVGRepo_tracerCarrier" stroke-linecap="round" stroke-linejoin="round"/>

<g id="SVGRepo_iconCarrier"> <g> <g> <path d="M490.667,42.667H384H128H21.333C9.551,42.667,0,52.218,0,64v128v128v85.333V448c0,11.782,9.551,21.333,21.333,21.333H128 h256h106.667c11.782,0,21.333-9.551,21.333-21.333v-42.667V320V192V64C512,52.218,502.449,42.667,490.667,42.667z M42.667,213.333 h64v85.333h-64V213.333z M362.667,192v42.667H149.333V192V85.333h213.333V192z M149.333,405.333V320v-42.667h213.333V320v85.333 v21.333H149.333V405.333z M405.333,213.333h64v85.333h-64V213.333z M469.333,85.333v85.333h-64V85.333H469.333z M42.667,85.333h64 v85.333h-64V85.333z M42.667,426.667v-21.333v-64h64v64v21.333H42.667z M469.333,426.667h-64v-21.333v-64h64v64V426.667z"/> </g> </g> </g>

</svg>